<svg width="14" height="15" viewBox="0 0 14 15" fill="none" xmlns="http://www.w3.org/2000/svg">
<path fill-rule="evenodd" clip-rule="evenodd" d="M6.20954 0.79126C6.72824 0.79126 7.22524 0.999535 7.59208 1.37084L13.1689 7.01557C13.3506 7.19935 13.4947 7.41755 13.593 7.65772C13.6913 7.89788 13.7419 8.1553 13.7419 8.41527C13.7419 8.67524 13.6913 8.93266 13.593 9.17283C13.4947 9.413 13.3506 9.6312 13.1689 9.81498L9.50843 13.52C9.32687 13.7039 9.11129 13.8498 8.87401 13.9493C8.63673 14.0488 8.38241 14.1 8.12557 14.1C7.86873 14.1 7.6144 14.0488 7.37712 13.9493C7.13985 13.8498 6.92427 13.7039 6.7427 13.52L1.16587 7.87529C0.984319 7.69152 0.840309 7.47335 0.742061 7.23325C0.643813 6.99314 0.593251 6.7358 0.593262 6.47592V2.77021C0.593262 2.24536 0.79925 1.74201 1.16591 1.37088C1.53257 0.999756 2.02987 0.79126 2.54841 0.79126H6.20954ZM6.20954 2.12209H2.54841C2.37858 2.12209 2.21572 2.19038 2.09563 2.31192C1.97555 2.43347 1.90809 2.59832 1.90809 2.77021V6.47592C1.90809 6.64759 1.9758 6.81262 2.09545 6.93439L7.67228 12.5791C7.9221 12.832 8.32838 12.832 8.5782 12.5791L12.2393 8.87341C12.2988 8.81322 12.3461 8.74175 12.3783 8.66308C12.4105 8.58442 12.4271 8.5001 12.4271 8.41494C12.4271 8.32978 12.4105 8.24546 12.3783 8.1668C12.3461 8.08813 12.2988 8.01666 12.2393 7.95647L6.6625 2.31174C6.60292 2.25149 6.53219 2.20372 6.45435 2.17118C6.37651 2.13864 6.2931 2.12196 6.20888 2.12209H6.20954ZM4.53774 3.45293C4.88645 3.45293 5.22088 3.59314 5.46746 3.84272C5.71404 4.0923 5.85256 4.4308 5.85256 4.78376C5.85256 5.13672 5.71404 5.47522 5.46746 5.7248C5.22088 5.97438 4.88645 6.11459 4.53774 6.11459C4.18902 6.11459 3.85459 5.97438 3.60802 5.7248C3.36144 5.47522 3.22291 5.13672 3.22291 4.78376C3.22291 4.4308 3.36144 4.0923 3.60802 3.84272C3.85459 3.59314 4.18902 3.45293 4.53774 3.45293V3.45293Z" fill="#7AC751"/>
</svg>
