<svg width="20" height="16" viewBox="0 0 20 16" fill="none" xmlns="http://www.w3.org/2000/svg">
<path d="M18.8992 5.69511C17.6439 3.64829 14.7885 0.214233 9.77698 0.214233C4.76547 0.214233 1.91008 3.64829 0.654773 5.69511C0.266711 6.32351 0.0611572 7.0477 0.0611572 7.7865C0.0611572 8.5253 0.266711 9.2495 0.654773 9.87789C1.91008 11.9247 4.76547 15.3588 9.77698 15.3588C14.7885 15.3588 17.6439 11.9247 18.8992 9.87789C19.2873 9.2495 19.4928 8.5253 19.4928 7.7865C19.4928 7.0477 19.2873 6.32351 18.8992 5.69511ZM17.5192 9.02951C16.4412 10.7846 14.001 13.7382 9.77698 13.7382C5.55297 13.7382 3.11278 10.7846 2.03472 9.02951C1.80416 8.65599 1.68204 8.22558 1.68204 7.7865C1.68204 7.34742 1.80416 6.91701 2.03472 6.5435C3.11278 4.78839 5.55297 1.83484 9.77698 1.83484C14.001 1.83484 16.4412 4.78514 17.5192 6.5435C17.7498 6.91701 17.8719 7.34742 17.8719 7.7865C17.8719 8.22558 17.7498 8.65599 17.5192 9.02951Z" fill="#757575"/>
<path d="M9.77699 3.73499C8.97662 3.73499 8.19421 3.9726 7.52873 4.41779C6.86324 4.86297 6.34456 5.49573 6.03827 6.23605C5.73198 6.97636 5.65184 7.79099 5.80798 8.5769C5.96413 9.36282 6.34955 10.0847 6.9155 10.6513C7.48145 11.218 8.20251 11.6038 8.9875 11.7602C9.7725 11.9165 10.5862 11.8362 11.3256 11.5296C12.0651 11.2229 12.6971 10.7037 13.1417 10.0374C13.5864 9.37112 13.8238 8.58781 13.8238 7.78649C13.8225 6.71236 13.3957 5.68259 12.6371 4.92307C11.8784 4.16354 10.8499 3.73627 9.77699 3.73499ZM9.77699 10.2174C9.29676 10.2174 8.82732 10.0748 8.42803 9.80772C8.02874 9.54061 7.71753 9.16095 7.53376 8.71676C7.34998 8.27257 7.3019 7.7838 7.39559 7.31225C7.48927 6.8407 7.72052 6.40755 8.06009 6.06758C8.39966 5.72762 8.8323 5.49609 9.3033 5.4023C9.7743 5.3085 10.2625 5.35664 10.7062 5.54063C11.1498 5.72462 11.529 6.03619 11.7958 6.43595C12.0626 6.83571 12.205 7.30571 12.205 7.78649C12.205 8.43121 11.9492 9.04952 11.4939 9.5054C11.0385 9.96129 10.4209 10.2174 9.77699 10.2174Z" fill="#757575"/>
</svg>
