<svg width="21" height="20" viewBox="0 0 21 20" fill="none" xmlns="http://www.w3.org/2000/svg">
<path d="M10.777 19.1556L2.53618 10.9051C1.44325 9.81104 0.829193 8.32709 0.829102 6.77973C0.829011 5.23237 1.44289 3.74836 2.53569 2.65414C3.62849 1.55993 5.1107 0.94516 6.65625 0.945068C8.20179 0.944977 9.68407 1.55958 10.777 2.65366C11.8705 1.56081 13.3524 0.947017 14.8974 0.947017C16.4425 0.947017 17.9244 1.56081 19.0178 2.65366V2.65366C20.1089 3.74865 20.7217 5.2322 20.7217 6.7789C20.7217 8.3256 20.1089 9.80916 19.0178 10.9041L10.777 19.1556ZM6.6561 2.88994C5.88767 2.88991 5.13648 3.11805 4.49756 3.54548C3.85863 3.97292 3.36068 4.58046 3.06667 5.29126C2.77266 6.00206 2.6958 6.78419 2.84583 7.53873C2.99585 8.29326 3.36601 8.98631 3.90949 9.5302L10.777 16.4058L17.6445 9.5302C18.039 9.14408 18.3468 8.67829 18.5474 8.16381C18.7481 7.64933 18.837 7.09797 18.8082 6.54641C18.7795 5.99486 18.6337 5.45576 18.3806 4.96499C18.1276 4.47422 17.773 4.04303 17.3406 3.70013C16.9081 3.35722 16.4077 3.11046 15.8726 2.97626C15.3374 2.84206 14.7799 2.8235 14.237 2.92182C13.6942 3.02014 13.1785 3.23308 12.7242 3.54647C12.27 3.85986 11.8876 4.26652 11.6025 4.73937L10.777 6.07345L9.95146 4.73937C9.61068 4.17057 9.12729 3.70085 8.54925 3.37678C7.9712 3.0527 7.31858 2.88555 6.6561 2.89189V2.88994Z" fill="#757575"/>
</svg>
