<svg width="58" height="58" viewBox="0 0 58 58" fill="none" xmlns="http://www.w3.org/2000/svg">
<path d="M55.3637 29.2433V21.0915C55.3637 18.3273 53.2197 16.0793 50.5107 15.8613L42.9403 2.6385C42.2388 1.41557 41.106 0.541509 39.7504 0.178561C38.4013 -0.181914 36.9906 0.00740666 35.7831 0.710192L9.83145 15.8188H5.27354C2.36563 15.8188 0.000854492 18.1834 0.000854492 21.0915V52.7273C0.000854492 55.6352 2.36551 58 5.27354 58H50.091C52.9989 58 55.3637 55.6353 55.3637 52.7273V44.5755C56.8947 44.0296 58 42.5801 58 40.8639V32.9549C58 31.2387 56.8947 29.7892 55.3637 29.2433ZM47.4473 15.8188H35.9582L44.5751 10.802L47.4473 15.8188ZM43.2654 8.51424L30.7186 15.8188H25.5144L41.9641 6.24152L43.2654 8.51424ZM37.1102 2.98859C37.7062 2.63973 38.4026 2.54705 39.0682 2.72475C39.7414 2.90493 40.3027 3.34005 40.6516 3.94891L40.6543 3.95373L20.2751 15.8188H15.0711L37.1102 2.98859ZM52.7273 52.7273C52.7273 54.1806 51.5443 55.3636 50.091 55.3636H5.27354C3.82027 55.3636 2.63726 54.1806 2.63726 52.7273V21.0915C2.63726 19.6382 3.82027 18.4552 5.27354 18.4552H50.091C51.5443 18.4552 52.7273 19.6382 52.7273 21.0915V29.0004H44.8184C40.4571 29.0004 36.9094 32.5481 36.9094 36.9094C36.9094 41.2707 40.4571 44.8183 44.8184 44.8183H52.7273V52.7273ZM55.3637 40.8639C55.3637 41.5911 54.7729 42.1821 54.0455 42.1821H44.8184C41.9104 42.1821 39.5457 39.8174 39.5457 36.9094C39.5457 34.0015 41.9103 31.6367 44.8184 31.6367H54.0455C54.7728 31.6367 55.3637 32.2275 55.3637 32.9549V40.8639Z" fill="#7AC751"/>
<path d="M44.8179 34.2732C43.3646 34.2732 42.1816 35.4562 42.1816 36.9095C42.1816 38.3627 43.3646 39.5457 44.8179 39.5457C46.2712 39.5457 47.4542 38.3627 47.4542 36.9095C47.4543 35.4562 46.2713 34.2732 44.8179 34.2732Z" fill="#7AC751"/>
</svg>
