<svg width="27" height="27" viewBox="0 0 27 27" fill="none" xmlns="http://www.w3.org/2000/svg">
<path d="M7.86463 7.43722C8.62512 6.61688 9.50913 6.00026 10.4509 5.57618C13.5807 4.16691 17.3897 4.89416 19.7576 7.59891L21.3933 6.19766C21.4842 6.11981 21.63 6.19183 21.6387 6.31382L22.0455 11.8018C22.0505 11.8932 21.9662 11.9654 21.88 11.9436L16.5301 10.696C16.4082 10.6653 16.3625 10.5131 16.4534 10.4353L18.0858 9.03678C16.5209 7.26501 14.1035 6.67947 11.9755 7.35998C11.171 7.6158 10.4104 8.04792 9.75614 8.67029C8.85664 9.52531 8.29282 10.6218 8.06947 11.7812C7.95173 12.3998 7.34542 12.7955 6.73261 12.6507C6.14944 12.5143 5.78531 11.937 5.9007 11.3485C6.17247 9.91684 6.82963 8.55465 7.86463 7.43722ZM19.3205 14.4739C19.1032 15.6338 18.5361 16.7331 17.6338 17.5848C16.9764 18.21 16.213 18.6389 15.4145 18.8952C13.2865 19.5757 10.8658 18.9929 9.3042 17.2184L10.9366 15.8199C11.0275 15.742 10.979 15.5866 10.8599 15.5591L5.5072 14.3083C5.4178 14.2892 5.33342 14.3615 5.34169 14.4501L5.7457 19.9348C5.75718 20.0601 5.90028 20.1288 5.99115 20.051L7.62681 18.6497C9.99148 21.3573 13.8033 22.0878 16.9335 20.6725C17.8753 20.2484 18.7565 19.6285 19.5198 18.8114C20.5576 17.6972 21.2147 16.335 21.4865 14.9034C21.5991 14.3117 21.2378 13.7376 20.6546 13.6012C20.0446 13.4597 19.4383 13.8553 19.3205 14.4739Z" fill="#757575" stroke="white" stroke-width="0.3"/>
</svg>
