<svg width="20" height="21" viewBox="0 0 20 21" fill="none" xmlns="http://www.w3.org/2000/svg">
<path d="M18.6797 16.1669H17.061V14.5463C17.061 14.3314 16.9758 14.1253 16.824 13.9733C16.6722 13.8213 16.4663 13.736 16.2517 13.736C16.037 13.736 15.8312 13.8213 15.6794 13.9733C15.5276 14.1253 15.4423 14.3314 15.4423 14.5463V16.1669H13.8236C13.609 16.1669 13.4031 16.2522 13.2513 16.4042C13.0996 16.5562 13.0143 16.7623 13.0143 16.9772C13.0143 17.1921 13.0996 17.3982 13.2513 17.5501C13.4031 17.7021 13.609 17.7875 13.8236 17.7875H15.4423V19.4081C15.4423 19.623 15.5276 19.8291 15.6794 19.981C15.8312 20.133 16.037 20.2184 16.2517 20.2184C16.4663 20.2184 16.6722 20.133 16.824 19.981C16.9758 19.8291 17.061 19.623 17.061 19.4081V17.7875H18.6797C18.8944 17.7875 19.1003 17.7021 19.252 17.5501C19.4038 17.3982 19.4891 17.1921 19.4891 16.9772C19.4891 16.7623 19.4038 16.5562 19.252 16.4042C19.1003 16.2522 18.8944 16.1669 18.6797 16.1669Z" fill="#757575"/>
<path d="M17.0611 5.63293H14.633C14.633 4.3435 14.1214 3.10688 13.2107 2.19511C12.3 1.28334 11.0648 0.771118 9.77693 0.771118C8.48901 0.771118 7.25383 1.28334 6.34314 2.19511C5.43244 3.10688 4.92081 4.3435 4.92081 5.63293H2.49275C1.84879 5.63293 1.23121 5.88904 0.775859 6.34492C0.32051 6.80081 0.0646973 7.41912 0.0646973 8.06383L0.0646973 16.1668C0.0659824 17.241 0.492749 18.2708 1.25139 19.0303C2.01002 19.7898 3.03859 20.2171 4.11146 20.2184H11.3956C11.6103 20.2184 11.8161 20.133 11.9679 19.981C12.1197 19.8291 12.205 19.623 12.205 19.4081C12.205 19.1931 12.1197 18.987 11.9679 18.8351C11.8161 18.6831 11.6103 18.5978 11.3956 18.5978H4.11146C3.4675 18.5978 2.84991 18.3416 2.39456 17.8858C1.93921 17.4299 1.6834 16.8116 1.6834 16.1668V8.06383C1.6834 7.84893 1.76867 7.64282 1.92046 7.49086C2.07224 7.3389 2.2781 7.25353 2.49275 7.25353H4.92081V8.87413C4.92081 9.08904 5.00608 9.29514 5.15787 9.4471C5.30965 9.59906 5.51551 9.68443 5.73017 9.68443C5.94482 9.68443 6.15068 9.59906 6.30246 9.4471C6.45425 9.29514 6.53952 9.08904 6.53952 8.87413V7.25353H13.0143V8.87413C13.0143 9.08904 13.0996 9.29514 13.2514 9.4471C13.4032 9.59906 13.609 9.68443 13.8237 9.68443C14.0383 9.68443 14.2442 9.59906 14.396 9.4471C14.5478 9.29514 14.633 9.08904 14.633 8.87413V7.25353H17.0611C17.2758 7.25353 17.4816 7.3389 17.6334 7.49086C17.7852 7.64282 17.8705 7.84893 17.8705 8.06383V12.1153C17.8705 12.3302 17.9557 12.5363 18.1075 12.6883C18.2593 12.8403 18.4652 12.9256 18.6798 12.9256C18.8945 12.9256 19.1003 12.8403 19.2521 12.6883C19.4039 12.5363 19.4892 12.3302 19.4892 12.1153V8.06383C19.4892 7.41912 19.2333 6.80081 18.778 6.34492C18.3226 5.88904 17.7051 5.63293 17.0611 5.63293ZM6.53952 5.63293C6.53952 4.77331 6.8806 3.94889 7.48773 3.34105C8.09487 2.7332 8.91831 2.39172 9.77693 2.39172C10.6355 2.39172 11.459 2.7332 12.0661 3.34105C12.6733 3.94889 13.0143 4.77331 13.0143 5.63293H6.53952Z" fill="#757575"/>
</svg>
