<svg width="27" height="33" viewBox="0 0 27 33" fill="none" xmlns="http://www.w3.org/2000/svg">
<path d="M4.9545 5.76496C5.49003 5.76496 5.92683 5.32816 5.92683 4.79264C5.92683 4.25711 5.49003 3.82031 4.9545 3.82031C4.41898 3.82031 3.98218 4.25711 3.98218 4.79264C3.98218 5.33115 4.41898 5.76496 4.9545 5.76496Z" fill="white"/>
<path d="M7.96419 20.5685V22.4354C9.47802 21.3374 11.285 20.7361 13.1908 20.7361C15.0936 20.7361 16.9036 21.3374 18.4174 22.4354V20.5685C18.4174 19.0008 19.2043 17.6157 20.398 16.781C20.2962 14.8124 18.6687 13.2417 16.6762 13.2417H9.7054C7.71288 13.2417 6.08536 14.8124 5.98364 16.781C7.17736 17.6157 7.96419 19.0008 7.96419 20.5685Z" fill="white"/>
<path d="M18.9409 10.3994H7.39868V11.9731H18.9409V10.3994Z" fill="white"/>
<path d="M18.4171 24.0899C16.993 22.7556 15.1501 22.0166 13.1905 22.0166C11.2309 22.0166 9.38795 22.7556 7.96387 24.0899V25.7952H18.4171V24.0899Z" fill="white"/>
<path d="M21.2055 5.76496C21.741 5.76496 22.1778 5.32816 22.1778 4.79264C22.1778 4.25711 21.741 3.82031 21.2055 3.82031C20.67 3.82031 20.2332 4.25711 20.2332 4.79264C20.2332 5.33115 20.67 5.76496 21.2055 5.76496Z" fill="white"/>
<path d="M13.2056 3.13537C14.0702 3.13537 14.7733 2.4323 14.7733 1.56768C14.7733 0.703064 14.0702 0 13.2056 0C12.341 0 11.6379 0.703064 11.6379 1.56768C11.6379 2.4323 12.341 3.13537 13.2056 3.13537Z" fill="white"/>
<path d="M23.0396 17.2266C21.1967 17.2266 19.6978 18.7254 19.6978 20.5684V27.0725H6.6836V20.5684C6.6836 18.7254 5.18473 17.2266 3.3418 17.2266C1.49887 17.2266 0 18.7254 0 20.5684C0 22.4113 1.49887 23.9102 3.3418 23.9102H3.98204V29.777H22.3993V23.9102H23.0396C24.8825 23.9102 26.3814 22.4113 26.3814 20.5684C26.3814 18.7254 24.8825 17.2266 23.0396 17.2266ZM3.3418 21.6065C2.76738 21.6065 2.30366 21.1428 2.30366 20.5684C2.30366 19.9939 2.77037 19.5302 3.3418 19.5302C3.91622 19.5302 4.37994 19.9939 4.37994 20.5684C4.37994 21.1428 3.91622 21.6065 3.3418 21.6065ZM23.0396 21.6065C22.4652 21.6065 22.0014 21.1428 22.0014 20.5684C22.0014 19.9939 22.4652 19.5302 23.0396 19.5302C23.614 19.5302 24.0777 19.9939 24.0777 20.5684C24.0777 21.1428 23.614 21.6065 23.0396 21.6065Z" fill="white"/>
<path d="M7.21905 9.11896H19.1173C19.7665 8.4159 20.2362 7.59017 20.4965 6.68965C19.7276 7.09354 18.866 7.31792 17.9804 7.31792C15.8832 7.31792 14.0672 6.12121 13.1667 4.37402C12.2662 6.11822 10.4472 7.31792 8.35293 7.31792C7.46437 7.31792 6.60574 7.10251 5.83984 6.70162C6.10611 7.59616 6.57283 8.41889 7.21905 9.11896Z" fill="white"/>
<path d="M7.96407 31.0576H6.68359V32.3381H7.96407V31.0576Z" fill="white"/>
<path d="M19.698 31.0576H18.4175V32.3381H19.698V31.0576Z" fill="white"/>
</svg>
