<svg width="32" height="39" viewBox="0 0 32 39" fill="none" xmlns="http://www.w3.org/2000/svg">
<path d="M5.96967 6.94641C6.61493 6.94641 7.14124 6.42011 7.14124 5.77484C7.14124 5.12958 6.61493 4.60327 5.96967 4.60327C5.3244 4.60327 4.7981 5.12958 4.7981 5.77484C4.7981 6.42371 5.3244 6.94641 5.96967 6.94641Z" fill="#85B839"/>
<path d="M9.59611 24.7833V27.0327C11.4202 25.7098 13.5975 24.9852 15.8938 24.9852C18.1864 24.9852 20.3674 25.7098 22.1914 27.0327V24.7833C22.1914 22.8944 23.1395 21.2253 24.5778 20.2196C24.4552 17.8476 22.4942 15.9551 20.0934 15.9551H11.6941C9.29331 15.9551 7.33228 17.8476 7.20972 20.2196C8.64804 21.2253 9.59611 22.8944 9.59611 24.7833Z" fill="#85B839"/>
<path d="M22.8222 12.5305H8.91479V14.4267H22.8222V12.5305Z" fill="#85B839"/>
<path d="M22.1912 29.0262C20.4753 27.4185 18.2548 26.5281 15.8936 26.5281C13.5324 26.5281 11.3118 27.4185 9.59595 29.0262V31.081H22.1912V29.0262Z" fill="#85B839"/>
<path d="M25.551 6.94641C26.1962 6.94641 26.7225 6.42011 26.7225 5.77484C26.7225 5.12958 26.1962 4.60327 25.551 4.60327C24.9057 4.60327 24.3794 5.12958 24.3794 5.77484C24.3794 6.42371 24.9057 6.94641 25.551 6.94641Z" fill="#85B839"/>
<path d="M15.9116 3.77786C16.9534 3.77786 17.8006 2.93073 17.8006 1.88893C17.8006 0.847135 16.9534 0 15.9116 0C14.8698 0 14.0227 0.847135 14.0227 1.88893C14.0227 2.93073 14.8698 3.77786 15.9116 3.77786Z" fill="#85B839"/>
<path d="M27.7608 20.7566C25.5402 20.7566 23.7342 22.5626 23.7342 24.7832V32.6201H8.05319V24.7832C8.05319 22.5626 6.24717 20.7566 4.0266 20.7566C1.80602 20.7566 0 22.5626 0 24.7832C0 27.0038 1.80602 28.8098 4.0266 28.8098H4.79803V35.8789H26.9894V28.8098H27.7608C29.9814 28.8098 31.7874 27.0038 31.7874 24.7832C31.7874 22.5626 29.9814 20.7566 27.7608 20.7566ZM4.0266 26.0341C3.33447 26.0341 2.77572 25.4753 2.77572 24.7832C2.77572 24.0911 3.33807 23.5323 4.0266 23.5323C4.71872 23.5323 5.27747 24.0911 5.27747 24.7832C5.27747 25.4753 4.71872 26.0341 4.0266 26.0341ZM27.7608 26.0341C27.0687 26.0341 26.5099 25.4753 26.5099 24.7832C26.5099 24.0911 27.0687 23.5323 27.7608 23.5323C28.4529 23.5323 29.0117 24.0911 29.0117 24.7832C29.0117 25.4753 28.4529 26.0341 27.7608 26.0341Z" fill="#85B839"/>
<path d="M8.69845 10.9875H23.0349C23.8171 10.1404 24.3831 9.14546 24.6967 8.0604C23.7703 8.54706 22.7321 8.81742 21.665 8.81742C19.138 8.81742 16.9499 7.37549 15.8649 5.27026C14.7798 7.37188 12.5881 8.81742 10.0647 8.81742C8.99405 8.81742 7.95946 8.55787 7.03662 8.07482C7.35745 9.15267 7.91981 10.144 8.69845 10.9875Z" fill="#85B839"/>
<path d="M9.59609 37.4219H8.05322V38.9647H9.59609V37.4219Z" fill="#85B839"/>
<path d="M23.7343 37.4219H22.1914V38.9647H23.7343V37.4219Z" fill="#85B839"/>
</svg>
